<svg width="191" height="32" viewBox="0 0 191 32" fill="none" xmlns="http://www.w3.org/2000/svg">
<path d="M19.908 19.268H5.868L2.844 26H0.072L11.592 0.799998H14.22L25.74 26H22.932L19.908 19.268ZM18.936 17.108L12.888 3.572L6.84 17.108H18.936ZM32.5727 3.104V13.004H45.6047V15.308H32.5727V26H29.9087V0.799998H47.1887V3.104H32.5727ZM60.5019 14.156L55.3539 19.376V26H52.6899V0.799998H55.3539V16.028L70.1499 0.799998H73.2099L62.3019 12.212L73.9659 26H70.7979L60.5019 14.156ZM108.766 0.799998V26H106.57L90.3696 5.552V26H87.7056V0.799998H89.9016L106.138 21.248V0.799998H108.766ZM132.795 19.268H118.755L115.731 26H112.959L124.479 0.799998H127.107L138.627 26H135.819L132.795 19.268ZM131.823 17.108L125.775 3.572L119.727 17.108H131.823ZM167.824 28.124C167.056 29.06 166.144 29.768 165.088 30.248C164.056 30.752 162.928 31.004 161.704 31.004C160.216 31.004 158.8 30.632 157.456 29.888C156.136 29.168 154.648 27.944 152.992 26.216C150.568 26.144 148.384 25.544 146.44 24.416C144.496 23.288 142.972 21.764 141.868 19.844C140.764 17.924 140.212 15.776 140.212 13.4C140.212 10.976 140.776 8.792 141.904 6.848C143.056 4.904 144.64 3.38 146.656 2.276C148.696 1.148 150.964 0.583999 153.46 0.583999C155.956 0.583999 158.2 1.136 160.192 2.24C162.208 3.344 163.792 4.88 164.944 6.848C166.096 8.792 166.672 10.976 166.672 13.4C166.672 15.512 166.228 17.456 165.34 19.232C164.476 20.984 163.252 22.448 161.668 23.624C160.108 24.8 158.308 25.58 156.268 25.964C158.116 27.908 159.94 28.88 161.74 28.88C163.612 28.88 165.208 28.112 166.528 26.576L167.824 28.124ZM142.84 13.4C142.84 15.368 143.296 17.144 144.208 18.728C145.144 20.312 146.416 21.56 148.024 22.472C149.656 23.384 151.468 23.84 153.46 23.84C155.452 23.84 157.252 23.384 158.86 22.472C160.468 21.56 161.728 20.312 162.64 18.728C163.552 17.144 164.008 15.368 164.008 13.4C164.008 11.432 163.552 9.656 162.64 8.072C161.728 6.488 160.468 5.24 158.86 4.328C157.252 3.416 155.452 2.96 153.46 2.96C151.468 2.96 149.656 3.416 148.024 4.328C146.416 5.24 145.144 6.488 144.208 8.072C143.296 9.656 142.84 11.432 142.84 13.4ZM180.193 17.288V26H177.565V17.288L167.485 0.799998H170.329L178.969 14.948L187.609 0.799998H190.273L180.193 17.288Z" fill="black"/>
</svg>
