<svg width="55" height="55" viewBox="0 0 55 55" fill="none" xmlns="http://www.w3.org/2000/svg">
<path d="M49.3931 9.16667C49.1848 9.14521 48.9749 9.14521 48.7667 9.16667H5.98889C5.71472 9.17089 5.44237 9.212 5.17917 9.28889L27.2556 31.2736L49.3931 9.16667Z" fill="black"/>
<path d="M51.6542 11.2903L29.4097 33.4431C28.8372 34.0122 28.0628 34.3316 27.2556 34.3316C26.4483 34.3316 25.6739 34.0122 25.1014 33.4431L3.05555 11.4583C2.98778 11.7074 2.95185 11.9641 2.94861 12.2222V42.7778C2.94861 43.5882 3.27053 44.3654 3.84356 44.9384C4.41659 45.5114 5.19378 45.8333 6.00416 45.8333H48.7819C49.5923 45.8333 50.3695 45.5114 50.9425 44.9384C51.5156 44.3654 51.8375 43.5882 51.8375 42.7778V12.2222C51.8253 11.9039 51.7635 11.5895 51.6542 11.2903ZM8.09722 42.7778H5.97361V40.5931L17.0806 29.5778L19.2347 31.7319L8.09722 42.7778ZM48.7514 42.7778H46.6125L35.475 31.7319L37.6292 29.5778L48.7361 40.5931L48.7514 42.7778Z" fill="black"/>
</svg>
