<svg width="49" height="49" viewBox="0 0 49 49" fill="none" xmlns="http://www.w3.org/2000/svg">
<path d="M24.5 3.0625C20.0344 3.06777 15.7532 4.84406 12.5955 8.00174C9.4378 11.1594 7.66151 15.4406 7.65624 19.9062C7.65089 23.5556 8.84293 27.1059 11.0495 30.0125C11.0495 30.0125 11.5089 30.6173 11.5839 30.7046L24.5 45.9375L37.4222 30.697C37.4896 30.6158 37.9505 30.0125 37.9505 30.0125L37.952 30.0079C40.1575 27.1025 41.349 23.5539 41.3437 19.9062C41.3385 15.4406 39.5622 11.1594 36.4045 8.00174C33.2468 4.84406 28.9656 3.06777 24.5 3.0625ZM24.5 26.0312C23.2886 26.0312 22.1044 25.672 21.0971 24.999C20.0899 24.326 19.3048 23.3694 18.8412 22.2502C18.3776 21.131 18.2563 19.8995 18.4927 18.7113C18.729 17.5232 19.3124 16.4318 20.169 15.5752C21.0256 14.7186 22.1169 14.1353 23.3051 13.8989C24.4932 13.6626 25.7247 13.7839 26.8439 14.2475C27.9631 14.7111 28.9197 15.4961 29.5927 16.5034C30.2658 17.5106 30.625 18.6948 30.625 19.9062C30.623 21.5301 29.977 23.0868 28.8288 24.235C27.6806 25.3833 26.1238 26.0292 24.5 26.0312Z" fill="black"/>
</svg>
