<svg width="49" height="49" viewBox="0 0 49 49" fill="none" xmlns="http://www.w3.org/2000/svg">
<path d="M44.4062 0H4.59375C2.06719 0 0 2.06719 0 4.59375V44.4062C0 46.9328 2.06719 49 4.59375 49H44.4062C46.9328 49 49 46.9328 49 44.4062V4.59375C49 2.06719 46.9328 0 44.4062 0ZM33.6875 7.65625C33.6875 6.81406 34.3766 6.125 35.2188 6.125H41.3438C42.1859 6.125 42.875 6.81406 42.875 7.65625V13.7812C42.875 14.6234 42.1859 15.3125 41.3438 15.3125H35.2188C34.8129 15.3117 34.4239 15.1501 34.1369 14.8631C33.8499 14.5761 33.6883 14.1871 33.6875 13.7812V7.65625ZM24.5 15.3125C26.8956 15.3744 29.1723 16.3695 30.8448 18.0857C32.5173 19.802 33.4533 22.1036 33.4533 24.5C33.4533 26.8964 32.5173 29.198 30.8448 30.9143C29.1723 32.6305 26.8956 33.6256 24.5 33.6875C22.1044 33.6256 19.8277 32.6305 18.1552 30.9143C16.4827 29.198 15.5467 26.8964 15.5467 24.5C15.5467 22.1036 16.4827 19.802 18.1552 18.0857C19.8277 16.3695 22.1044 15.3744 24.5 15.3125ZM42.875 41.3438C42.875 42.1859 42.1859 42.875 41.3438 42.875H7.65625C7.25039 42.8742 6.86138 42.7126 6.57439 42.4256C6.2874 42.1386 6.12581 41.7496 6.125 41.3438V21.4375H9.49375C9.03899 23.6626 9.08497 25.961 9.62836 28.1661C10.1718 30.3712 11.1989 32.4278 12.6355 34.1868C14.072 35.9458 15.8819 37.3632 17.934 38.3362C19.9861 39.3092 22.2289 39.8135 24.5 39.8125C26.7711 39.8135 29.0139 39.3092 31.066 38.3362C33.1181 37.3632 34.928 35.9458 36.3645 34.1868C37.8011 32.4278 38.8283 30.3712 39.3716 28.1661C39.915 25.961 39.961 23.6626 39.5062 21.4375H42.875V41.3438Z" fill="black"/>
</svg>
